<mxfile>
    <diagram id="3pAtNVHVfTjGZIDIE6pC" name="ページ1">
        <mxGraphModel dx="697" dy="756" grid="1" gridSize="10" guides="1" tooltips="1" connect="1" arrows="1" fold="1" page="1" pageScale="1" pageWidth="827" pageHeight="1169" math="0" shadow="0">
            <root>
                <mxCell id="0"/>
                <mxCell id="1" parent="0"/>
                <mxCell id="7J23q5Q88G_xHKF8TSQK-1" value="サイドバー" style="whiteSpace=wrap;html=1;" parent="1" vertex="1">
                    <mxGeometry y="140" width="210" height="920" as="geometry"/>
                </mxCell>
                <mxCell id="7J23q5Q88G_xHKF8TSQK-2" value="ヘッダー" style="whiteSpace=wrap;html=1;" parent="1" vertex="1">
                    <mxGeometry width="820" height="140" as="geometry"/>
                </mxCell>
                <mxCell id="7J23q5Q88G_xHKF8TSQK-3" value="ページ名" style="whiteSpace=wrap;html=1;" parent="1" vertex="1">
                    <mxGeometry x="230" y="180" width="160" height="50" as="geometry"/>
                </mxCell>
                <mxCell id="7J23q5Q88G_xHKF8TSQK-4" value="" style="rounded=0;whiteSpace=wrap;html=1;" parent="1" vertex="1">
                    <mxGeometry x="280" y="330" width="426" height="420" as="geometry"/>
                </mxCell>
                <mxCell id="7J23q5Q88G_xHKF8TSQK-5" value="タスク一覧" style="whiteSpace=wrap;html=1;" parent="1" vertex="1">
                    <mxGeometry x="280" y="260" width="210" height="40" as="geometry"/>
                </mxCell>
                <mxCell id="7J23q5Q88G_xHKF8TSQK-6" value="タスクA" style="text;html=1;align=center;verticalAlign=middle;whiteSpace=wrap;rounded=0;strokeColor=#f0f0f0;" parent="1" vertex="1">
                    <mxGeometry x="310" y="430" width="260" height="40" as="geometry"/>
                </mxCell>
                <mxCell id="7J23q5Q88G_xHKF8TSQK-8" value="タスクB" style="text;html=1;align=center;verticalAlign=middle;whiteSpace=wrap;rounded=0;strokeColor=#f0f0f0;" parent="1" vertex="1">
                    <mxGeometry x="310" y="500" width="260" height="40" as="geometry"/>
                </mxCell>
                <mxCell id="7J23q5Q88G_xHKF8TSQK-10" value="タスクC" style="text;html=1;align=center;verticalAlign=middle;whiteSpace=wrap;rounded=0;strokeColor=#f0f0f0;" parent="1" vertex="1">
                    <mxGeometry x="310" y="570" width="260" height="40" as="geometry"/>
                </mxCell>
                <mxCell id="7J23q5Q88G_xHKF8TSQK-11" value="ページネーション" style="text;html=1;strokeColor=none;fillColor=none;align=center;verticalAlign=middle;whiteSpace=wrap;rounded=0;" parent="1" vertex="1">
                    <mxGeometry x="322" y="700" width="176" height="20" as="geometry"/>
                </mxCell>
                <mxCell id="7J23q5Q88G_xHKF8TSQK-13" value="カテゴリ検索" style="rounded=1;whiteSpace=wrap;html=1;strokeColor=#f0f0f0;" parent="1" vertex="1">
                    <mxGeometry x="310" y="350" width="200" height="40" as="geometry"/>
                </mxCell>
            </root>
        </mxGraphModel>
    </diagram>
</mxfile>